<svg xmlns="http://www.w3.org/2000/svg" viewBox="0 0 30 30"><defs><style>.cls-1{fill:#364f65;}</style></defs><g id="icon"><g id="icon_Home"><path class="cls-1" d="M26.87,13.54,15.26,3.27a.37.37,0,0,0-.52,0L3.13,13.54a.4.4,0,0,0,.53.6L15,4.09,26.34,14.14a.44.44,0,0,0,.26.1.41.41,0,0,0,.3-.14A.4.4,0,0,0,26.87,13.54Z"/><path class="cls-1" d="M23.7,20.12a.39.39,0,0,0-.4.39V26H18.16V20.11a.39.39,0,0,0-.39-.39H12.23a.39.39,0,0,0-.39.39V26H6.7V15.76a.4.4,0,0,0-.4-.39.39.39,0,0,0-.39.39V26.44a.38.38,0,0,0,.39.39h5.93a.39.39,0,0,0,.4-.39V20.51h4.74v5.93a.39.39,0,0,0,.4.39H23.7a.38.38,0,0,0,.39-.39V20.51A.38.38,0,0,0,23.7,20.12Z"/></g></g></svg>