<svg xmlns="http://www.w3.org/2000/svg" viewBox="0 0 30 30"><defs><style>.cls-1{fill:none;}.cls-2{fill:#364f65;}.cls-3{fill:#fff;}</style></defs><g id="icon"><g id="index_s"><path class="cls-1" d="M5.44,22.84V20.58c0-2.39,4-4.4,8.8-4.4a13,13,0,0,1,7.15,1.88h4.32V2.76h-23v23h15.3V22.84Zm8.8-17.59a4.45,4.45,0,0,1,4.39,4.4A4.45,4.45,0,0,1,14.24,14a4.37,4.37,0,0,1-4.4-4.39A4.45,4.45,0,0,1,14.24,5.25Z"/><path class="cls-2" d="M5.44,20.58v2.26H18.06v-4.4a.38.38,0,0,1,.38-.38h2.95a13,13,0,0,0-7.15-1.88C9.46,16.18,5.44,18.19,5.44,20.58Z"/><circle class="cls-2" cx="14.24" cy="9.65" r="4.4"/><path class="cls-3" d="M25.75,21.23l-2.92,4a.38.38,0,0,1-.25.16h-.06a.39.39,0,0,1-.23-.07l-1.9-1.43a.38.38,0,0,1,.45-.61l1.6,1.19,2.69-3.73a.38.38,0,0,1,.54-.08A.37.37,0,0,1,25.75,21.23Z"/><path class="cls-2" d="M27.62,18.06H26.47V2.38A.38.38,0,0,0,26.09,2H2.38A.38.38,0,0,0,2,2.38V26.09a.38.38,0,0,0,.38.38H18.06v1.15a.38.38,0,0,0,.38.38h9.18a.38.38,0,0,0,.38-.38V18.44A.38.38,0,0,0,27.62,18.06Zm-.38,9.18H18.82V18.82h8.42ZM2.76,25.71v-23h23v15.3H18.44a.38.38,0,0,0-.38.38v7.27Z"/><path class="cls-2" d="M25.13,20.78l-2.69,3.73-1.6-1.19a.38.38,0,0,0-.45.61l1.9,1.43a.39.39,0,0,0,.23.07h.06a.38.38,0,0,0,.25-.16l2.92-4a.37.37,0,0,0-.08-.53A.38.38,0,0,0,25.13,20.78Z"/></g></g></svg>