<svg xmlns="http://www.w3.org/2000/svg" viewBox="0 0 30 30"><defs><style>.cls-1{fill:#364f65;}</style></defs><g id="icon"><g id="kpi_s"><ellipse class="cls-1" cx="9.97" cy="14.18" rx="3.99" ry="3.82"/><path class="cls-1" d="M10,19.86c-4.33,0-8,1.74-8,3.81v2H18v-2C18,21.6,14.3,19.86,10,19.86Z"/><rect class="cls-1" x="19.33" y="13.43" width="2.36" height="11.82"/><rect class="cls-1" x="25.64" y="8.7" width="2.36" height="16.55"/><rect class="cls-1" x="22.48" y="11.06" width="2.36" height="14.18"/><path class="cls-1" d="M22.72,8.86a.8.8,0,0,0,.79-.7l.33-2.92v0a1.79,1.79,0,0,0,0-.23s0-.06,0-.08a.72.72,0,0,0-.41-.47s-.06,0-.08,0a.64.64,0,0,0-.23,0h-3a.79.79,0,1,0,0,1.58H21l-4.86,4.33a.79.79,0,0,0-.06,1.11.78.78,0,0,0,.59.27.81.81,0,0,0,.52-.2L22,7.12l-.1.86a.79.79,0,0,0,.69.87Z"/></g></g></svg>