<svg xmlns="http://www.w3.org/2000/svg" viewBox="0 0 30 30"><defs><style>.cls-1{fill:none;}.cls-2{fill:#364f65;}</style></defs><g id="icon"><g id="map_s"><path class="cls-1" d="M20.08,20.94a17.62,17.62,0,0,1-5,2.76l-.11,0-.11,0a17.62,17.62,0,0,1-5-2.76H5.37L2.89,27.15H27.11l-2.48-6.21Z"/><path class="cls-2" d="M28,27.38l-2.76-6.93a.37.37,0,0,0-.34-.23H20.93a11.38,11.38,0,0,0,3.91-8.59A9.68,9.68,0,0,0,15,2.13a9.68,9.68,0,0,0-9.84,9.5,11.38,11.38,0,0,0,3.91,8.59H5.13a.37.37,0,0,0-.34.23L2,27.38a.35.35,0,0,0,0,.33.37.37,0,0,0,.3.16H27.64a.37.37,0,0,0,.3-.16A.35.35,0,0,0,28,27.38ZM15,2.85a9,9,0,0,1,9.12,8.78c0,7.89-8.09,11-9.12,11.34-1-.36-9.12-3.45-9.12-11.34A9,9,0,0,1,15,2.85ZM2.89,27.15l2.48-6.21H9.92a17.62,17.62,0,0,0,5,2.76l.11,0,.11,0a17.62,17.62,0,0,0,5-2.76h4.55l2.48,6.21Z"/><path class="cls-2" d="M15,11.29a2.78,2.78,0,1,0-2.81-2.81A2.81,2.81,0,0,0,15,11.29Z"/><path class="cls-2" d="M15,21.82a14,14,0,0,0,6.51-5C20,13.87,17.68,12,15,12s-5,1.92-6.51,4.88A14,14,0,0,0,15,21.82ZM12.09,15.3a1.79,1.79,0,0,1,1.44-.83,1.86,1.86,0,0,1,1.5.76,1.74,1.74,0,0,1,2.91.14,2.14,2.14,0,0,1,0,2.21,6,6,0,0,1-2.84,2.56l-.13,0a.27.27,0,0,1-.12,0,5.91,5.91,0,0,1-2.78-2.62A2.15,2.15,0,0,1,12.09,15.3Z"/></g></g></svg>