<svg xmlns="http://www.w3.org/2000/svg" viewBox="0 0 30 30"><defs><style>.cls-1{fill:none;}.cls-2{fill:#364f65;}</style></defs><g id="icon"><g id="movie_s"><rect class="cls-1" x="16.84" y="5.42" width="2.95" height="1.47"/><rect class="cls-1" x="10.21" y="5.42" width="2.95" height="1.47"/><rect class="cls-1" x="3.58" y="5.42" width="2.95" height="1.47"/><path class="cls-1" d="M15,10.58A4.42,4.42,0,1,0,19.42,15,4.42,4.42,0,0,0,15,10.58Zm2.74,4.53-4,2.32a.13.13,0,0,1-.2-.11V12.68a.13.13,0,0,1,.2-.11l4,2.32A.12.12,0,0,1,17.74,15.11Z"/><path class="cls-1" d="M28.26,7.63H1.74V22.37H28.26ZM15,20.16A5.16,5.16,0,1,1,20.16,15,5.16,5.16,0,0,1,15,20.16Z"/><rect class="cls-1" x="23.47" y="5.42" width="2.95" height="1.47"/><rect class="cls-1" x="3.58" y="23.11" width="2.95" height="1.47"/><rect class="cls-1" x="23.47" y="23.11" width="2.95" height="1.47"/><rect class="cls-1" x="16.84" y="23.11" width="2.95" height="1.47"/><rect class="cls-1" x="10.21" y="23.11" width="2.95" height="1.47"/><path class="cls-2" d="M15,9.84A5.16,5.16,0,1,0,20.16,15,5.16,5.16,0,0,0,15,9.84Zm0,9.58A4.42,4.42,0,1,1,19.42,15,4.42,4.42,0,0,1,15,19.42Z"/><path class="cls-2" d="M13.73,12.57a.13.13,0,0,0-.2.11v4.64a.13.13,0,0,0,.2.11l4-2.32a.12.12,0,0,0,0-.22Z"/><path class="cls-2" d="M28.63,4.68H1.37A.37.37,0,0,0,1,5.05V25a.37.37,0,0,0,.37.37H28.63A.37.37,0,0,0,29,25V5.05A.37.37,0,0,0,28.63,4.68ZM1.74,22.37V7.63H28.26V22.37ZM26.42,6.89h-3V5.42h3Zm-6.63,0H16.84V5.42h2.95Zm-6.63,0H10.21V5.42h2.95Zm-6.63,0H3.58V5.42h3ZM3.58,23.11h3v1.47H3.58Zm6.63,0h2.95v1.47H10.21Zm6.63,0h2.95v1.47H16.84Zm6.63,0h3v1.47h-3Z"/></g></g></svg>