<svg id="レイヤー_1" data-name="レイヤー 1" xmlns="http://www.w3.org/2000/svg" viewBox="0 0 40 40"><defs><style>.cls-1{fill:none;}.cls-2{fill:#4390de;}.cls-3{fill:#fff;}</style></defs><rect class="cls-1" x="14.5" y="15.75" width="18" height="14.16"/><path class="cls-2" d="M36.3,0H0V40H36.3A3.7,3.7,0,0,0,40,36.3V3.7A3.7,3.7,0,0,0,36.3,0Z"/><path class="cls-3" d="M20,25.65a.6.6,0,0,1-.5-.27L12.92,15.32a.64.64,0,0,1,0-.64.6.6,0,0,1,.53-.33H26.58a.6.6,0,0,1,.53.33.64.64,0,0,1,0,.64L20.5,25.38a.6.6,0,0,1-.5.27m-.12-.71h0Zm.24,0Z"/></svg>